<?xml version="1.0" encoding="utf-8"?>
<!-- Generator: Adobe Illustrator 22.0.0, SVG Export Plug-In . SVG Version: 6.00 Build 0)  -->
<svg version="1.1" id="图层_1" xmlns="http://www.w3.org/2000/svg" xmlns:xlink="http://www.w3.org/1999/xlink" x="0px" y="0px"
	 viewBox="0 0 32 18" style="enable-background:new 0 0 32 18;" xml:space="preserve">
<style type="text/css">
	.st0{fill:#333333;}
</style>
<path class="st0" d="M28.4,6.8c1.1-1.1,2.2-2.3,3.2-3.6c0.7-0.9,0.5-2.1-0.4-2.8S29-0.1,28.4,0.8C24.8,5.7,20.7,8,16,8
	S7.2,5.7,3.6,0.8C3-0.1,1.7-0.3,0.8,0.4C-0.1,1-0.3,2.3,0.4,3.2c1,1.4,2.1,2.7,3.3,3.7l-3.2,3.8c-0.7,0.8-0.6,2.1,0.2,2.8
	c0.8,0.7,2.1,0.6,2.8-0.2l3.3-4c0.9,0.6,1.8,1,2.8,1.4l-1.5,4.6c-0.3,1,0.2,2.2,1.3,2.5c1,0.3,2.2-0.2,2.5-1.3l1.6-4.8
	c0.8,0.1,1.6,0.2,2.5,0.2c0.3,0,0.7,0,1,0l1.6,4.7c0.3,1,1.5,1.6,2.5,1.3c1-0.3,1.6-1.5,1.3-2.5L21,11.3c1.5-0.4,2.9-1.1,4.2-2
	l3.2,4c0.7,0.9,1.9,1,2.8,0.3c0.9-0.7,1-1.9,0.3-2.8L28.4,6.8z"/>
</svg>
