<?xml version="1.0" encoding="utf-8"?>
<!-- Generator: Adobe Illustrator 22.0.0, SVG Export Plug-In . SVG Version: 6.00 Build 0)  -->
<svg version="1.1" id="图层_1" xmlns="http://www.w3.org/2000/svg" xmlns:xlink="http://www.w3.org/1999/xlink" x="0px" y="0px"
	 viewBox="0 0 40 26" style="enable-background:new 0 0 40 26;" xml:space="preserve">
<style type="text/css">
	.st0{fill:#333333;}
</style>
<path id="形状结合" class="st0" d="M20,26c-7,0-13.2-4-18.6-11.9L0.6,13l0.8-1.1C6.8,4,13,0,20,0s13.2,4,18.6,11.9l0.8,1.1
	l-0.8,1.1C33.2,22,27,26,20,26z M20,4c-5.2,0-10,2.9-14.5,9c4.5,6.1,9.3,9,14.5,9s10-2.9,14.5-9C30,6.9,25.2,4,20,4z M20,20
	c-3.9,0-7-3.1-7-7s3.1-7,7-7s7,3.1,7,7S23.9,20,20,20z M20,16c1.7,0,3-1.3,3-3s-1.3-3-3-3s-3,1.3-3,3S18.3,16,20,16z"/>
</svg>
